<?xml version="1.0" standalone="no"?>
<!DOCTYPE svg PUBLIC "-//W3C//DTD SVG 1.1//EN" "http://www.w3.org/Graphics/SVG/1.1/DTD/svg11.dtd" >
<svg xmlns="http://www.w3.org/2000/svg" xmlns:xlink="http://www.w3.org/1999/xlink" version="1.1">
<metadata></metadata>
<defs>
<font id="apotek_compblack" horiz-adv-x="761" >
<font-face units-per-em="2048" ascent="1536" descent="-512" />
<missing-glyph horiz-adv-x="389" />
<glyph unicode="&#xfb01;" horiz-adv-x="837" d="M18 702v269h103v135q0 65 7.5 106.5t29 76t65 50t111.5 15.5h454l-28 -269h-361v-114h392v-971h-279v702h-113v-702h-278v702h-103z" />
<glyph unicode="&#xfb02;" horiz-adv-x="858" d="M18 702v269h103v135q0 138 46.5 193t166.5 55h479v-1354h-278v1085h-136v-114h86v-269h-86v-702h-278v702h-103z" />
<glyph horiz-adv-x="0" />
<glyph horiz-adv-x="682" />
<glyph unicode=" "  horiz-adv-x="389" />
<glyph unicode="&#x09;" horiz-adv-x="389" />
<glyph unicode="&#xa0;" horiz-adv-x="389" />
<glyph unicode="!" horiz-adv-x="399" d="M53 0v270h295v-270h-295zM53 369v962h295v-962h-295z" />
<glyph unicode="&#x22;" horiz-adv-x="694" d="M29 1331h288l-18 -502h-254zM377 1331h289l-19 -502h-254z" />
<glyph unicode="#" horiz-adv-x="1028" d="M35 281v262h119l18 200h-137v263h162l30 325h283l-31 -325h131l31 325h283l-31 -325h100v-263h-125l-18 -200h143v-262h-168l-26 -281h-283l27 281h-131l-27 -281h-283l27 281h-94zM436 543h131l19 200h-131z" />
<glyph unicode="$" horiz-adv-x="786" d="M39 279v186h297v-191h117v177l-273 180q-57 38 -85 67t-42 72.5t-14 112.5v196q0 130 60 189.5t171 62.5v176h242v-176q126 -4 181 -73.5t55 -217.5v-159h-295v174h-117v-156l270 -170q84 -51 113 -100.5t29 -151.5v-203q0 -130 -59.5 -202t-174.5 -72h-2v-162h-242v162 q-108 3 -169.5 75.5t-61.5 203.5z" />
<glyph unicode="%" horiz-adv-x="1435" d="M37 858v307q0 73 57 119.5t133 46.5h148q90 0 148.5 -51.5t58.5 -122.5v-297q0 -68 -56.5 -120t-132.5 -52h-166q-71 0 -130.5 44t-59.5 126zM262 881h94v247h-94v-247zM336 0l481 1331h277l-482 -1331h-276zM854 170v307q0 73 57 119.5t133 46.5h148q90 0 148.5 -51.5 t58.5 -122.5v-297q0 -68 -56.5 -120t-132.5 -52h-166q-71 0 -130.5 44t-59.5 126zM1079 193h95v247h-95v-247z" />
<glyph unicode="&#x26;" horiz-adv-x="1056" d="M45 274v248l170 170l-129 170v174q0 143 67.5 219t200.5 76h156q146 0 212 -75t66 -226v-121l-227 -229l45 -59l49 124h295l-151 -380l274 -365h-336l-55 74q-42 -74 -131 -74h-268q-108 0 -173 70.5t-65 203.5zM340 274h133l19 50l-121 163l-31 -30v-183zM381 920 l27 -37l86 86v86h-113v-135z" />
<glyph unicode="'" horiz-adv-x="354" d="M33 1331h289l-19 -502h-254z" />
<glyph unicode="(" horiz-adv-x="503" d="M70 25v1159q0 182 70 267t216 85h127v-317h-131v-1209h131v-262h-127q-145 0 -215.5 68t-70.5 209z" />
<glyph unicode=")" horiz-adv-x="503" d="M20 10h132v1209h-132v317h127q146 0 216.5 -85t70.5 -267v-1159q0 -141 -71 -209t-216 -68h-127v262z" />
<glyph unicode="*" horiz-adv-x="669" d="M18 928l181 78l-181 77l119 201l115 -117l-35 195h234l-37 -197l116 119l121 -203l-182 -77l180 -76l-119 -203l-114 117l35 -193h-236l35 193l-113 -115z" />
<glyph unicode="+" horiz-adv-x="614" d="M31 479v283h164v223h225v-223h164v-283h-164v-205h-225v205h-164z" />
<glyph unicode="," horiz-adv-x="393" d="M49 -246v516h295v-270z" />
<glyph unicode="-" horiz-adv-x="448" d="M31 479v283h387v-283h-387z" />
<glyph unicode="&#xad;" horiz-adv-x="448" d="M31 479v283h387v-283h-387z" />
<glyph unicode="." horiz-adv-x="393" d="M49 0v270h295v-270h-295z" />
<glyph unicode="/" horiz-adv-x="624" d="M16 0l297 1331h295l-297 -1331h-295z" />
<glyph unicode="0" horiz-adv-x="813" d="M45 274v768q0 133 65 211t173 78h235q122 0 186 -77t64 -214v-766q0 -131 -62 -202.5t-180 -71.5h-241q-111 0 -175.5 71t-64.5 203zM332 274h149v781h-149v-781z" />
<glyph unicode="1" horiz-adv-x="536" d="M25 817v256q71 6 116 73.5t45 184.5h303v-1331h-303v913q-23 -46 -71 -71t-90 -25z" />
<glyph unicode="2" horiz-adv-x="796" d="M51 909v168q0 127 43.5 190.5t151.5 63.5h319q107 0 151 -64t44 -190v-139q0 -38 -8.5 -63t-34.5 -68l-346 -553h389v-254h-703v254l408 653v162h-119v-160h-295z" />
<glyph unicode="3" horiz-adv-x="811" d="M37 238v194h309v-170h133v281h-145v260h131v266h-119v-160h-295v168q0 127 43.5 190.5t151.5 63.5h319q107 0 151 -64t44 -190v-246q0 -58 -20 -94t-54 -45q48 -14 68 -52.5t20 -104.5v-297q0 -99 -57 -168.5t-168 -69.5h-287q-111 0 -168 69.5t-57 168.5z" />
<glyph unicode="4" horiz-adv-x="847" d="M31 199v270l291 862h411v-862h94v-270h-94v-199h-293v199h-409zM322 469h118v405q0 27 2 52q-6 -36 -10 -47z" />
<glyph unicode="5" horiz-adv-x="796" d="M47 258v182h295v-166h121v283h-416v774h658v-276h-363v-226h176q129 0 180.5 -72t51.5 -216v-267q0 -43 -6.5 -80.5t-23 -74t-42 -62t-66.5 -41.5t-94 -16h-231q-113 0 -176.5 63t-63.5 195z" />
<glyph unicode="6" horiz-adv-x="800" d="M47 258v848q0 115 63.5 170t174.5 55h407v-276h-350v-226h184q129 0 180.5 -72t51.5 -216v-267q0 -43 -6.5 -80.5t-23 -74t-42 -62t-66.5 -41.5t-94 -16h-239q-113 0 -176.5 63t-63.5 195zM342 274h129v283h-129v-283z" />
<glyph unicode="7" horiz-adv-x="696" d="M12 1055v276h664v-276q-41 -92 -69.5 -166t-62.5 -186t-51.5 -240.5t-17.5 -267.5v-195h-303v195q0 141 17.5 272t50 241t61.5 186t68 161h-357z" />
<glyph unicode="8" horiz-adv-x="811" d="M37 238v290q0 66 20 105t68 53q-33 9 -53.5 46.5t-20.5 94.5v250q0 127 43.5 190.5t151.5 63.5h319q107 0 151 -64t44 -190v-250q0 -58 -20 -95t-54 -46q48 -14 68 -53t20 -105v-290q0 -99 -57 -168.5t-168 -69.5h-287q-111 0 -168 69.5t-57 168.5zM346 262h133v275h-133 v-275zM346 799h119v270h-119v-270z" />
<glyph unicode="9" horiz-adv-x="800" d="M43 791v266q0 55 11 100.5t36 86.5t72 64t112 23h240q113 0 176.5 -63t63.5 -195v-848q0 -115 -63.5 -170t-174.5 -55h-407v276h350v226h-185q-128 0 -179.5 72.5t-51.5 216.5zM330 774h129v283h-129v-283z" />
<glyph unicode=":" horiz-adv-x="393" d="M49 0v270h295v-270h-295zM49 553v270h295v-270h-295z" />
<glyph unicode=";" horiz-adv-x="393" d="M49 -246v516h295v-270zM49 553v270h295v-270h-295z" />
<glyph unicode="&#x3c;" horiz-adv-x="614" d="M31 492v270l553 194v-262l-275 -63v-6l275 -50v-272z" />
<glyph unicode="=" horiz-adv-x="614" d="M31 287v282h553v-282h-553zM31 674v282h553v-282h-553z" />
<glyph unicode="&#x3e;" horiz-adv-x="614" d="M31 303v262l274 64v6l-274 49v272l553 -188v-270z" />
<glyph unicode="?" horiz-adv-x="800" d="M33 877v172q0 136 68.5 209t187.5 73h205q127 0 194.5 -65t67.5 -217v-320q0 -115 -52.5 -164t-148.5 -49h-14v-147h-295v383h215v303h-133v-178h-295zM246 0v270h295v-270h-295z" />
<glyph unicode="@" horiz-adv-x="1591" d="M49 -129v1171q0 133 65 211t173 78h999q260 0 260 -293v-764q0 -132 -61.5 -203t-179.5 -71h-435l-10 76q-4 -3 -10.5 -9t-29 -20.5t-46.5 -25.5t-60.5 -20t-72.5 -9q-188 0 -188 235v435q0 235 188 235q124 0 223 -74l6 66h267v-699h114v875h-907v-1206h676l22 -262 h-753q-111 0 -175.5 71t-64.5 203zM748 262h112v359h-112v-359z" />
<glyph unicode="A" horiz-adv-x="813" d="M8 0l137 1331h529l131 -1331h-303l-19 236h-153l-19 -236h-303zM350 504h113l-41 551h-29z" />
<glyph unicode="B" horiz-adv-x="806" d="M45 0v1331h522q108 0 151.5 -63.5t43.5 -190.5v-250q0 -58 -20 -95t-54 -46q48 -14 68 -53t20 -105v-290q0 -99 -57 -168.5t-168 -69.5h-506zM342 262h133v275h-133v-275zM342 799h119v270h-119v-270z" />
<glyph unicode="C" horiz-adv-x="796" d="M47 258v848q0 115 63.5 170t174.5 55h223q141 0 195.5 -72.5t54.5 -218.5v-204h-297v219h-113v-781h113v277h297v-277q0 -274 -242 -274h-229q-113 0 -176.5 63t-63.5 195z" />
<glyph unicode="D" horiz-adv-x="827" d="M45 0v1331h504q128 0 179.5 -73t51.5 -218v-766q0 -55 -11 -101t-36 -86.5t-72 -63.5t-112 -23h-504zM346 274h133v781h-133v-781z" />
<glyph unicode="E" horiz-adv-x="679" d="M45 0v1331h606v-276h-305v-254h219v-275h-219v-252h305v-274h-606z" />
<glyph unicode="F" horiz-adv-x="663" d="M45 0v1331h606v-276h-305v-301h219v-275h-219v-479h-301z" />
<glyph unicode="G" horiz-adv-x="817" d="M47 258v848q0 115 63.5 170t174.5 55h254q128 0 179.5 -73t51.5 -218v-159h-301v174h-121v-781h129v254h-69v234h362v-488q0 -55 -11 -101t-36 -86.5t-72 -63.5t-112 -23h-252q-113 0 -176.5 63t-63.5 195z" />
<glyph unicode="H" horiz-adv-x="829" d="M45 0v1331h301v-536h137v536h301v-1331h-301v520h-137v-520h-301z" />
<glyph unicode="I" horiz-adv-x="395" d="M47 0v1331h301v-1331h-301z" />
<glyph unicode="J" horiz-adv-x="786" d="M29 274v179h295v-179h114v1057h301v-1057q0 -132 -61.5 -203t-179.5 -71h-230q-111 0 -175 70.5t-64 203.5z" />
<glyph unicode="K" horiz-adv-x="837" d="M45 0v1331h301v-528h43l117 528h319l-157 -653v-16l178 -662h-320l-135 528h-45v-528h-301z" />
<glyph unicode="L" horiz-adv-x="675" d="M45 0v1331h301v-1057h307v-274h-608z" />
<glyph unicode="M" horiz-adv-x="1175" d="M45 0v1331h401l144 -950h10l127 950h403v-1331h-253v590q0 155 2 274q-12 -133 -23 -213l-92 -651h-334l-104 651q-8 46 -27 219q6 -188 6 -280v-590h-260z" />
<glyph unicode="N" horiz-adv-x="892" d="M45 0v1331h346l115 -457q40 -161 123 -606q-27 328 -27 486v577h246v-1331h-379l-88 332q-46 173 -107 575q17 -423 17 -495v-412h-246z" />
<glyph unicode="O" horiz-adv-x="829" d="M47 274v768q0 133 65 211t173 78h247q122 0 186 -77t64 -214v-766q0 -132 -61.5 -203t-179.5 -71h-254q-111 0 -175.5 71t-64.5 203zM348 274h133v781h-133v-781z" />
<glyph unicode="P" horiz-adv-x="792" d="M45 0v1331h545q56 0 91.5 -16.5t53.5 -52t24.5 -78t6.5 -107.5v-532q0 -102 -49 -170t-158 -68h-213v-307h-301zM346 582h119v473h-119v-473z" />
<glyph unicode="Q" horiz-adv-x="829" d="M47 274v768q0 133 65 211t173 78h247q122 0 186 -77t64 -214v-766q0 -115 -47.5 -184t-138.5 -86l49 -276h-297l-41 272h-20q-111 0 -175.5 71t-64.5 203zM348 274h133v781h-133v-781z" />
<glyph unicode="R" horiz-adv-x="802" d="M45 0v1331h545q96 0 136 -58.5t40 -195.5v-420q0 -103 -22 -160.5t-72 -78.5l110 -418h-301l-98 383h-37v-383h-301zM346 657h125v398h-125v-398z" />
<glyph unicode="S" horiz-adv-x="786" d="M39 279v186h297v-191h117v177l-273 180q-57 38 -85 67t-42 72.5t-14 112.5v196q0 134 64 193t184 59h205q137 0 196.5 -69t59.5 -222v-159h-295v174h-117v-156l270 -170q84 -51 113 -100.5t29 -151.5v-203q0 -130 -59.5 -202t-174.5 -72h-233q-112 0 -177 72.5t-65 206.5 z" />
<glyph unicode="T" horiz-adv-x="759" d="M8 1055v276h744v-276h-220v-1055h-303v1055h-221z" />
<glyph unicode="U" horiz-adv-x="825" d="M47 274v1057h301v-1057h129v1057h301v-1057q0 -132 -61.5 -203t-179.5 -71h-250q-111 0 -175.5 71t-64.5 203z" />
<glyph unicode="V" horiz-adv-x="813" d="M8 1331h303l80 -1012h29l82 1012h303l-164 -1331h-479z" />
<glyph unicode="W" horiz-adv-x="1271" d="M6 1331h295l59 -1007h17l104 1007h303l117 -1007h14l56 1007h295l-136 -1331h-409l-76 815h-14l-78 -815h-410z" />
<glyph unicode="X" horiz-adv-x="794" d="M-8 0l229 686l-221 645h301l105 -393l90 393h301l-207 -661l213 -670h-301l-103 399l-106 -399h-301z" />
<glyph unicode="Y" horiz-adv-x="790" d="M-14 1331h309l94 -504h8l101 504h307l-268 -827v-504h-301v502z" />
<glyph unicode="Z" horiz-adv-x="700" d="M29 0v274l323 781h-323v276h643v-276l-326 -781h326v-274h-643z" />
<glyph unicode="[" horiz-adv-x="503" d="M70 -252v1788h413v-317h-131v-1209h131v-262h-413z" />
<glyph unicode="\" horiz-adv-x="624" d="M16 1331h295l297 -1331h-295z" />
<glyph unicode="]" horiz-adv-x="503" d="M20 10h132v1209h-132v317h414v-1788h-414v262z" />
<glyph unicode="^" horiz-adv-x="1024" d="M186 1077l123 254h406l123 -254h-234l-92 142l-92 -142h-234z" />
<glyph unicode="_" horiz-adv-x="389" d="M-61 -174h512v-279h-512v279z" />
<glyph unicode="`" horiz-adv-x="1024" d="M307 1331h303l66 -254h-227z" />
<glyph unicode="a" d="M45 227v516q0 52 8 92t27.5 74t56 52t88.5 18q98 0 211 -84l8 76h271v-971h-269l-10 76q-3 -3 -9.5 -9t-27.5 -20.5t-44 -25.5t-58.5 -20t-71.5 -9q-53 0 -89 18t-55.5 52t-27.5 73.5t-8 91.5zM324 262h112v440h-112v-440z" />
<glyph unicode="b" d="M47 0v1354h279v-459q113 84 211 84q52 0 88.5 -18t56 -52t27.5 -74t8 -92v-516q0 -52 -8 -91.5t-27.5 -73.5t-55.5 -52t-89 -18q-57 0 -110 21t-77 42l-24 21l-11 -76h-268zM326 262h112v440h-112v-440z" />
<glyph unicode="c" horiz-adv-x="724" d="M45 270v420q0 135 68.5 208t201.5 73h95q274 0 274 -279v-88h-268v98h-103v-440h103v141h268v-135q0 -130 -69.5 -199t-204.5 -69h-95q-133 0 -201.5 69t-68.5 201z" />
<glyph unicode="d" d="M45 227v516q0 52 8 92t27.5 74t56 52t88.5 18q98 0 211 -84v459h279v-1354h-269l-10 76q-3 -3 -9.5 -9t-27.5 -20.5t-44 -25.5t-58.5 -20t-71.5 -9q-53 0 -89 18t-55.5 52t-27.5 73.5t-8 91.5zM324 262h112v440h-112v-440z" />
<glyph unicode="e" horiz-adv-x="733" d="M45 295v383q0 142 65.5 217.5t188.5 75.5h133q256 0 256 -291v-285h-375v-157h113v79h262v-24q0 -146 -65.5 -219.5t-190.5 -73.5h-133q-124 0 -189 73.5t-65 221.5zM313 561h113v152h-113v-152z" />
<glyph unicode="f" horiz-adv-x="524" d="M18 702v269h103v135q0 65 7.5 106.5t29 76t65 50t111.5 15.5h188l-22 -269h-101v-114h105v-269h-105v-702h-278v702h-103z" />
<glyph unicode="g" horiz-adv-x="759" d="M45 236v507q0 52 8 92t27.5 74t56 52t88.5 18q102 0 215 -84l6 76h267v-996q0 -157 -62 -222.5t-198 -65.5h-275l21 247h237v150q-3 -3 -9.5 -9t-27.5 -20.5t-44 -25.5t-58.5 -20t-71.5 -9q-52 0 -88.5 18t-56 52t-27.5 74t-8 92zM324 262h112v440h-112v-440z" />
<glyph unicode="h" horiz-adv-x="759" d="M47 0v1354h279v-459q108 84 225 84q87 0 126.5 -49.5t39.5 -165.5v-764h-279v702h-112v-702h-279z" />
<glyph unicode="i" horiz-adv-x="372" d="M47 0v971h279v-971h-279zM47 1055v237h279v-237h-279z" />
<glyph unicode="j" horiz-adv-x="393" d="M-121 -313l21 247h168v1037h278v-996q0 -157 -62 -222.5t-198 -65.5h-207zM68 1055v237h278v-237h-278z" />
<glyph unicode="k" horiz-adv-x="755" d="M47 0v1354h279v-717h20l98 334h291l-151 -451v-20l168 -500h-291l-115 356h-20v-356h-279z" />
<glyph unicode="l" horiz-adv-x="368" d="M45 0v1354h279v-1354h-279z" />
<glyph unicode="m" horiz-adv-x="1136" d="M47 0v971h268l7 -76q120 84 223 84q64 0 100 -20.5t51 -63.5q107 84 232 84q82 0 123 -49.5t41 -163.5v-766h-279v702h-104v-702h-279v702h-104v-702h-279z" />
<glyph unicode="n" d="M47 0v971h268l7 -76q123 84 229 84q86 0 126 -50t40 -167v-762h-279v702h-112v-702h-279z" />
<glyph unicode="o" horiz-adv-x="739" d="M45 295v383q0 142 65.5 217.5t188.5 75.5h139q256 0 256 -291v-387q0 -146 -65.5 -219.5t-190.5 -73.5h-139q-124 0 -189 73.5t-65 221.5zM313 262h113v440h-113v-440z" />
<glyph unicode="p" d="M47 -313v1284h268l7 -76q113 84 215 84q52 0 88.5 -18t56 -52t27.5 -74t8 -92v-516q0 -52 -8 -91.5t-27.5 -73.5t-55.5 -52t-89 -18q-57 0 -110 21t-77 42l-24 21v-389h-279zM326 262h112v440h-112v-440z" />
<glyph unicode="q" d="M45 227v516q0 52 8 92t27.5 74t56 52t88.5 18q102 0 215 -84l6 76h269v-1284h-279v389q-3 -3 -9.5 -9t-27.5 -20.5t-44 -25.5t-58.5 -20t-71.5 -9q-53 0 -89 18t-55.5 52t-27.5 73.5t-8 91.5zM324 262h112v440h-112v-440z" />
<glyph unicode="r" horiz-adv-x="567" d="M47 0v971h268l7 -76q105 84 235 84l-22 -277h-209v-702h-279z" />
<glyph unicode="s" horiz-adv-x="708" d="M35 250v92h258v-94h119v74l-246 116q-70 34 -100.5 80t-30.5 131v78q0 244 248 244h133q135 0 196.5 -64t61.5 -194v-76h-262v84h-119v-68l250 -112q68 -31 99.5 -79t31.5 -132v-82q0 -119 -62.5 -183.5t-183.5 -64.5h-156q-116 0 -176.5 63t-60.5 187z" />
<glyph unicode="t" horiz-adv-x="514" d="M47 260v932h279v-221h145l-22 -269h-123v-434h159v-268h-198q-125 0 -182.5 65t-57.5 195z" />
<glyph unicode="u" d="M45 186v785h279v-709h112v709h279v-971h-269l-10 72q-104 -80 -225 -80q-80 0 -123 48t-43 146z" />
<glyph unicode="v" horiz-adv-x="714" d="M2 971h272l78 -695h15l59 695h287l-164 -971h-383z" />
<glyph unicode="w" horiz-adv-x="1083" d="M4 971h270l52 -692h6l63 692h285l78 -692h6l35 692h280l-127 -971h-346l-65 600h-6l-48 -600h-352z" />
<glyph unicode="x" horiz-adv-x="739" d="M2 0l205 504l-197 467h293l74 -262l63 262h287l-188 -475l198 -496h-297l-75 260l-76 -260h-287z" />
<glyph unicode="y" horiz-adv-x="759" d="M45 195v776h277v-709h112v709h279v-996q0 -157 -62 -222.5t-198 -65.5h-277l21 247h237v146q-104 -80 -225 -80q-78 0 -121 48.5t-43 146.5z" />
<glyph unicode="z" horiz-adv-x="690" d="M47 702v269h598v-269l-291 -434h291v-268h-596v268l291 434h-293z" />
<glyph unicode="{" horiz-adv-x="520" d="M16 516v227q66 0 78.5 33t11.5 172v66v272q0 129 66 189.5t201 60.5h127v-317h-131v-232q0 -187 -14.5 -259t-65.5 -97q51 -25 65.5 -97.5t14.5 -259.5v-264h131v-262h-127q-134 0 -200.5 73t-66.5 224v201q0 172 -5 203q-8 51 -42 62q-16 5 -43 5z" />
<glyph unicode="|" horiz-adv-x="460" d="M92 -342v1878h277v-1878h-277z" />
<glyph unicode="}" horiz-adv-x="520" d="M20 10h132v264q0 188 14 260t65 97q-51 25 -65 96.5t-14 259.5v232h-132v317h127q135 0 201 -60.5t66 -189.5v-272v-66q-1 -139 11.5 -172t78.5 -33v-227q-65 0 -77.5 -38t-12.5 -185v-47v-201q0 -151 -66.5 -224t-200.5 -73h-127v262z" />
<glyph unicode="~" horiz-adv-x="1024" d="M174 1044l25 123q21 106 67.5 150.5t126.5 44.5q42 0 79 -8t51.5 -14.5t41.5 -20.5l92 -49l41 92h209l-24 -123q-21 -105 -68.5 -150t-126.5 -45q-42 0 -79 8t-51.5 14.5t-41.5 20.5l-92 50l-41 -93h-209z" />
<glyph unicode="&#xa1;" horiz-adv-x="399" d="M51 0v963h295v-963h-295zM51 1061v270h295v-270h-295z" />
<glyph unicode="&#xa2;" horiz-adv-x="724" d="M45 496v333q0 114 48.5 183.5t144.5 89.5v166h241v-164q205 -30 205 -273v-88h-268v99h-103v-355h103v142h268v-135q0 -228 -205 -263v-161h-241v161q-95 19 -144 86.5t-49 178.5z" />
<glyph unicode="&#xa3;" horiz-adv-x="870" d="M25 276h110v269h-92v274h92v223q0 133 65 211t173 78h286l23 -276h-252v-236h94v-274h-94v-271h113v146h295v-146q0 -131 -62 -202.5t-180 -71.5h-207q-68 0 -104 41q-34 -41 -95 -41h-143z" />
<glyph unicode="&#xa4;" horiz-adv-x="710" d="M29 227l82 195q-29 60 -29 145v158q0 88 33 152l-78 190h252l26 -96h88l23 96h246l-76 -190q31 -57 31 -150v-160q0 -79 -25 -137l80 -203h-256l-27 95h-98l-27 -95h-245zM307 541h94v204h-94v-204z" />
<glyph unicode="&#xa5;" horiz-adv-x="790" d="M-14 1331h309l94 -504h8l101 504h307l-207 -641h68v-282h-129v-64h129v-283h-129v-61h-301v61h-123v283h123v64h-123v282h65z" />
<glyph unicode="&#xa6;" horiz-adv-x="460" d="M92 -342v913h277v-913h-277zM92 680v856h277v-856h-277z" />
<glyph unicode="&#xa7;" horiz-adv-x="786" d="M39 -23v58h295v-72h117v94l-271 170q-83 53 -112 102t-29 150v60q0 162 92 231l8 6l-8 6q-53 38 -72.5 84.5t-19.5 132.5v115q0 134 64 193t184 59h205q137 0 196.5 -69t59.5 -222v-57h-295v72h-117v-95l270 -170q83 -53 112.5 -102.5t29.5 -149.5v-59q0 -82 -20.5 -135 t-65.5 -92l-13 -11l13 -10q49 -41 67.5 -85.5t18.5 -127.5v-114q0 -134 -64 -193t-184 -59h-205q-137 0 -196.5 68.5t-59.5 221.5zM313 440h160v172h-160v-172z" />
<glyph unicode="&#xa8;" horiz-adv-x="1024" d="M279 1077v254h198v-254h-198zM547 1077v254h198v-254h-198z" />
<glyph unicode="&#xa9;" horiz-adv-x="1200" d="M70 139v1084q0 108 118 108h824q118 0 118 -108v-1084q0 -66 -33.5 -102.5t-88.5 -36.5h-797q-64 0 -102.5 34.5t-38.5 104.5zM209 119h782v1093h-782v-1093zM281 446v400q0 155 61.5 219.5t189.5 64.5h125q142 0 202.5 -63.5t60.5 -200.5v-102h-269v98h-102v-395h102 v141h269v-180q0 -223 -263 -223h-118q-131 0 -194.5 58.5t-63.5 182.5z" />
<glyph unicode="&#xaa;" horiz-adv-x="571" d="M33 823v355q0 75 32 117t115 42q74 0 150 -55l6 49h205v-663h-205l-6 51q-7 -6 -19 -15.5t-51 -25.5t-80 -16q-83 0 -115 43t-32 118zM244 856h86v285h-86v-285z" />
<glyph unicode="&#xab;" horiz-adv-x="868" d="M35 401v201l381 277v-254l-174 -121l174 -107v-252zM444 401v201l381 277v-254l-174 -121l174 -107v-252z" />
<glyph unicode="&#xac;" horiz-adv-x="614" d="M31 479v283h553v-488h-226v205h-327z" />
<glyph unicode="&#xae;" horiz-adv-x="1200" d="M70 139v1084q0 108 118 108h824q118 0 118 -108v-1084q0 -66 -33.5 -102.5t-88.5 -36.5h-797q-64 0 -102.5 34.5t-38.5 104.5zM209 119h782v1093h-782v-1093zM293 201v929h457q170 0 170 -206v-217q0 -125 -72 -168q72 -43 72 -168v-170h-275v217h-84v-217h-268zM561 651 h90v226h-90v-226z" />
<glyph unicode="&#xaf;" horiz-adv-x="1024" d="M309 1106v190h406v-190h-406z" />
<glyph unicode="&#xb0;" horiz-adv-x="493" d="M31 1069v96q0 166 174 166h86q172 0 172 -178v-82q0 -178 -172 -178h-94q-78 0 -122 43.5t-44 132.5zM201 1053h92v116h-92v-116z" />
<glyph unicode="&#xb1;" horiz-adv-x="614" d="M31 0v262h553v-262h-553zM31 489v283h164v213h225v-213h164v-283h-164v-194h-225v194h-164z" />
<glyph unicode="&#xb2;" horiz-adv-x="534" d="M33 1077v56q0 198 180 198h111q184 0 184 -209v-28q0 -24 -11.5 -54t-22 -47.5t-32.5 -52.5l-145 -233h211v-175h-471v84l280 451v90h-94v-80h-190z" />
<glyph unicode="&#xb3;" horiz-adv-x="540" d="M33 715v88h186v-96h98v155h-96v154h96v141h-98v-80h-186v56q0 92 43 145t137 53h115q95 0 137.5 -53.5t42.5 -136.5v-111q0 -61 -51 -84q51 -20 51 -96v-145q0 -82 -46.5 -127.5t-121.5 -45.5h-135q-79 0 -125.5 49.5t-46.5 133.5z" />
<glyph unicode="&#xb4;" horiz-adv-x="1024" d="M369 1077l65 254h303l-141 -254h-227z" />
<glyph unicode="&#xb5;" d="M47 -313v1284h277v-709h112v709h279v-971h-269l-10 72q-55 -43 -112 -62v-323h-277z" />
<glyph unicode="&#xb6;" horiz-adv-x="1001" d="M47 516v592q0 114 32 168.5t120 54.5h757v-1331h-200v1090h-94v-1090h-201v309h-230q-94 0 -139 60t-45 147z" />
<glyph unicode="&#xb7;" horiz-adv-x="393" d="M49 530v271h295v-271h-295z" />
<glyph unicode="&#xb8;" horiz-adv-x="1024" d="M346 -152h150v-55h67v70q-62 0 -88 27t-26 87v41h135v-41q70 0 99.5 -33t29.5 -106v-16q0 -78 -33.5 -117t-106.5 -39h-90q-71 0 -104 33.5t-33 101.5v47z" />
<glyph unicode="&#xb9;" horiz-adv-x="405" d="M37 979v186q52 5 84.5 48.5t32.5 117.5h192v-799h-192v504q-33 -52 -117 -57z" />
<glyph unicode="&#xba;" horiz-adv-x="565" d="M33 864v264q0 99 50 151t146 52h105q198 0 198 -201v-268q0 -203 -198 -203h-105q-95 0 -145.5 51t-50.5 154zM240 848h86v289h-86v-289z" />
<glyph unicode="&#xbb;" horiz-adv-x="868" d="M43 145v254l174 121l-174 107v252l381 -256v-201zM453 145v254l174 121l-174 107v252l381 -256v-201z" />
<glyph unicode="&#xbc;" horiz-adv-x="1294" d="M37 979v186q52 5 84.5 48.5t32.5 117.5h192v-799h-192v504q-33 -52 -117 -57zM246 0l420 1331h213l-420 -1331h-213zM694 98v189l191 512h293v-512h75v-189h-75v-98h-193v98h-291zM893 287h92v213q0 60 4 100q-7 -40 -26 -98z" />
<glyph unicode="&#xbd;" horiz-adv-x="1247" d="M37 979v186q52 5 84.5 48.5t32.5 117.5h192v-799h-192v504q-33 -52 -117 -57zM246 0l420 1331h213l-420 -1331h-213zM723 545v55q0 199 180 199h111q184 0 184 -209v-29q0 -24 -11.5 -53.5t-22 -47.5t-31.5 -52l-146 -234h211v-174h-471v84l281 451v90h-95v-80h-190z" />
<glyph unicode="&#xbe;" horiz-adv-x="1417" d="M33 715v88h186v-96h98v155h-96v154h96v141h-98v-80h-186v56q0 92 43 145t137 53h115q95 0 137.5 -53.5t42.5 -136.5v-111q0 -61 -51 -84q51 -20 51 -96v-145q0 -82 -46.5 -127.5t-121.5 -45.5h-135q-79 0 -125.5 49.5t-46.5 133.5zM369 0l419 1331h213l-419 -1331h-213z M817 98v189l191 512h292v-512h76v-189h-76v-98h-192v98h-291zM1016 287h92v213q0 60 4 100q-6 -34 -27 -98z" />
<glyph unicode="&#xbf;" horiz-adv-x="800" d="M45 283v319q0 115 52.5 164t148.5 49h14v148h295v-383h-215v-304h133v179h295v-172q0 -136 -68.5 -209.5t-187.5 -73.5h-205q-126 0 -194 65.5t-68 217.5zM260 1061v270h295v-270h-295z" />
<glyph unicode="&#xc0;" horiz-adv-x="813" d="M8 0l137 1331h529l131 -1331h-303l-19 236h-153l-19 -236h-303zM184 1655h303l66 -254h-227zM350 504h113l-41 551h-29z" />
<glyph unicode="&#xc1;" horiz-adv-x="813" d="M8 0l137 1331h529l131 -1331h-303l-19 236h-153l-19 -236h-303zM262 1401l66 254h303l-142 -254h-227zM350 504h113l-41 551h-29z" />
<glyph unicode="&#xc2;" horiz-adv-x="813" d="M8 0l137 1331h529l131 -1331h-303l-19 236h-153l-19 -236h-303zM164 1401l82 254h323l82 -254h-178l-65 100l-68 -100h-176zM350 504h113l-41 551h-29z" />
<glyph unicode="&#xc3;" horiz-adv-x="813" d="M8 0l137 1331h529l131 -1331h-303l-19 236h-153l-19 -236h-303zM154 1419v127q0 65 33.5 102.5t93.5 37.5h57q50 0 86 -26.5t49 -62.5l14 -38h23v118h152v-129q0 -70 -32.5 -103.5t-90.5 -33.5h-58q-51 0 -83 17t-50 57l-22 53h-23v-119h-149zM350 504h113l-41 551h-29z " />
<glyph unicode="&#xc4;" horiz-adv-x="813" d="M8 0l137 1331h529l131 -1331h-303l-19 236h-153l-19 -236h-303zM174 1401v254h199v-254h-199zM350 504h113l-41 551h-29zM442 1401v254h199v-254h-199z" />
<glyph unicode="&#xc5;" horiz-adv-x="813" d="M8 0l137 1331h48q-3 15 -3 33v84q0 71 39.5 113.5t122.5 42.5h117q75 0 117.5 -43t42.5 -125v-78q0 -19 -2 -27h47l131 -1331h-303l-19 236h-153l-19 -236h-303zM350 504h113l-41 551h-29zM371 1339h75v119h-75v-119z" />
<glyph unicode="&#xc6;" horiz-adv-x="1091" d="M4 0l176 1331h883v-276h-305v-254h219v-275h-219v-252h305v-274h-606v236h-123l-27 -236h-303zM365 504h92v551h-29z" />
<glyph unicode="&#xc7;" horiz-adv-x="796" d="M47 258v848q0 115 63.5 170t174.5 55h223q141 0 195.5 -72.5t54.5 -218.5v-204h-297v219h-113v-781h113v277h297v-277q0 -274 -242 -274h-57v-23q70 0 99.5 -33t29.5 -106v-16q0 -78 -33 -117t-106 -39h-91q-71 0 -104 33.5t-33 101.5v47h150v-55h67v70q-62 0 -88 27 t-26 87v23h-37q-113 0 -176.5 63t-63.5 195z" />
<glyph unicode="&#xc8;" horiz-adv-x="679" d="M45 0v1331h606v-276h-305v-254h219v-275h-219v-252h305v-274h-606zM117 1655h303l65 -254h-227z" />
<glyph unicode="&#xc9;" horiz-adv-x="679" d="M45 0v1331h606v-276h-305v-254h219v-275h-219v-252h305v-274h-606zM195 1401l65 254h303l-141 -254h-227z" />
<glyph unicode="&#xca;" horiz-adv-x="679" d="M45 0v1331h606v-276h-305v-254h219v-275h-219v-252h305v-274h-606zM96 1401l82 254h324l82 -254h-178l-66 100l-68 -100h-176z" />
<glyph unicode="&#xcb;" horiz-adv-x="679" d="M45 0v1331h606v-276h-305v-254h219v-275h-219v-252h305v-274h-606zM106 1401v254h199v-254h-199zM375 1401v254h198v-254h-198z" />
<glyph unicode="&#xcc;" horiz-adv-x="395" d="M-25 1655h304l65 -254h-227zM47 0v1331h301v-1331h-301z" />
<glyph unicode="&#xcd;" horiz-adv-x="395" d="M47 0v1331h301v-1331h-301zM53 1401l66 254h303l-141 -254h-228z" />
<glyph unicode="&#xce;" horiz-adv-x="395" d="M-45 1401l82 254h323l82 -254h-178l-65 100l-68 -100h-176zM47 0v1331h301v-1331h-301z" />
<glyph unicode="&#xcf;" horiz-adv-x="395" d="M-35 1401v254h199v-254h-199zM47 0v1331h301v-1331h-301zM233 1401v254h199v-254h-199z" />
<glyph unicode="&#xd0;" horiz-adv-x="847" d="M6 526v277h60v528h503q128 0 180 -73.5t52 -217.5v-766q0 -55 -11 -101t-36 -86.5t-72.5 -63.5t-112.5 -23h-503v526h-60zM367 274h133v781h-133v-252h67v-277h-67v-252z" />
<glyph unicode="&#xd1;" horiz-adv-x="892" d="M45 0v1331h346l115 -457q40 -161 123 -606q-27 328 -27 486v577h246v-1331h-379l-88 332q-46 173 -107 575q17 -423 17 -495v-412h-246zM215 1419v127q0 65 33.5 102.5t93.5 37.5h57q50 0 86.5 -26.5t49.5 -62.5l14 -38h22v118h152v-129q0 -70 -32.5 -103.5t-90.5 -33.5 h-57q-51 0 -83 17t-50 57l-23 53h-22v-119h-150z" />
<glyph unicode="&#xd2;" horiz-adv-x="829" d="M47 274v768q0 133 65 211t173 78h247q122 0 186 -77t64 -214v-766q0 -132 -61.5 -203t-179.5 -71h-254q-111 0 -175.5 71t-64.5 203zM170 1655h303l66 -254h-228zM348 274h133v781h-133v-781z" />
<glyph unicode="&#xd3;" horiz-adv-x="829" d="M47 274v768q0 133 65 211t173 78h247q122 0 186 -77t64 -214v-766q0 -132 -61.5 -203t-179.5 -71h-254q-111 0 -175.5 71t-64.5 203zM289 1401l65 254h303l-141 -254h-227zM348 274h133v781h-133v-781z" />
<glyph unicode="&#xd4;" horiz-adv-x="829" d="M47 274v768q0 133 65 211t173 78h247q122 0 186 -77t64 -214v-766q0 -132 -61.5 -203t-179.5 -71h-254q-111 0 -175.5 71t-64.5 203zM170 1401l82 254h323l82 -254h-178l-65 100l-68 -100h-176zM348 274h133v781h-133v-781z" />
<glyph unicode="&#xd5;" horiz-adv-x="829" d="M47 274v768q0 133 65 211t173 78h247q122 0 186 -77t64 -214v-766q0 -132 -61.5 -203t-179.5 -71h-254q-111 0 -175.5 71t-64.5 203zM160 1419v127q0 65 33.5 102.5t93.5 37.5h57q50 0 86 -26.5t49 -62.5l15 -38h22v118h152v-129q0 -70 -32.5 -103.5t-90.5 -33.5h-58 q-51 0 -83 17t-50 57l-22 53h-23v-119h-149zM348 274h133v781h-133v-781z" />
<glyph unicode="&#xd6;" horiz-adv-x="829" d="M47 274v768q0 133 65 211t173 78h247q122 0 186 -77t64 -214v-766q0 -132 -61.5 -203t-179.5 -71h-254q-111 0 -175.5 71t-64.5 203zM180 1401v254h199v-254h-199zM348 274h133v781h-133v-781zM449 1401v254h198v-254h-198z" />
<glyph unicode="&#xd7;" horiz-adv-x="614" d="M8 956l213 113l88 -174l86 174l211 -108l-166 -332l162 -324l-211 -112l-84 167l-84 -170l-211 109l162 326z" />
<glyph unicode="&#xd8;" horiz-adv-x="854" d="M45 274v768q0 133 65 211t173 78h180l20 86h295l-37 -160q68 -74 68 -217v-766q0 -131 -62 -202.5t-180 -71.5h-153l-21 -86h-295l31 137q-84 71 -84 223zM332 614l98 441h-98v-441zM428 274h94v424z" />
<glyph unicode="&#xd9;" horiz-adv-x="825" d="M41 274v1057h301v-1057h129v1057h301v-1057q0 -131 -62 -202.5t-180 -71.5h-249q-111 0 -175.5 71t-64.5 203zM162 1655h303l65 -254h-227z" />
<glyph unicode="&#xda;" horiz-adv-x="825" d="M47 274v1057h301v-1057h129v1057h301v-1057q0 -132 -61.5 -203t-179.5 -71h-250q-111 0 -175.5 71t-64.5 203zM287 1401l65 254h303l-141 -254h-227z" />
<glyph unicode="&#xdb;" horiz-adv-x="825" d="M47 274v1057h301v-1057h129v1057h301v-1057q0 -132 -61.5 -203t-179.5 -71h-250q-111 0 -175.5 71t-64.5 203zM168 1401l82 254h323l82 -254h-178l-65 100l-68 -100h-176z" />
<glyph unicode="&#xdc;" horiz-adv-x="825" d="M47 274v1057h301v-1057h129v1057h301v-1057q0 -132 -61.5 -203t-179.5 -71h-250q-111 0 -175.5 71t-64.5 203zM178 1401v254h199v-254h-199zM446 1401v254h199v-254h-199z" />
<glyph unicode="&#xdd;" horiz-adv-x="790" d="M-14 1331h309l94 -504h8l101 504h307l-268 -827v-504h-301v502zM248 1401l65 254h303l-141 -254h-227z" />
<glyph unicode="&#xde;" horiz-adv-x="788" d="M45 0v1331h301v-131h240q56 0 91.5 -16.5t53.5 -52t24.5 -78t6.5 -107.5v-532q0 -102 -49 -170t-158 -68h-209v-176h-301zM346 451h119v473h-119v-473z" />
<glyph unicode="&#xdf;" horiz-adv-x="788" d="M47 0v1055q0 159 60.5 229t205.5 70h131q152 0 216.5 -71.5t64.5 -227.5v-172q0 -57 -19.5 -94t-52.5 -48q49 -13 69.5 -52t20.5 -105v-346q0 -99 -57 -168.5t-168 -69.5h-143l20 262h72v330h-88v262h70v231h-125v-1085h-277z" />
<glyph unicode="&#xe0;" d="M45 227v516q0 52 8 92t27.5 74t56 52t88.5 18q98 0 211 -84l8 76h271v-971h-269l-10 76q-3 -3 -9.5 -9t-27.5 -20.5t-44 -25.5t-58.5 -20t-71.5 -9q-53 0 -89 18t-55.5 52t-27.5 73.5t-8 91.5zM166 1303h303l66 -254h-228zM324 262h112v440h-112v-440z" />
<glyph unicode="&#xe1;" d="M45 227v516q0 52 8 92t27.5 74t56 52t88.5 18q98 0 211 -84l8 76h271v-971h-269l-10 76q-3 -3 -9.5 -9t-27.5 -20.5t-44 -25.5t-58.5 -20t-71.5 -9q-53 0 -89 18t-55.5 52t-27.5 73.5t-8 91.5zM244 1049l65 254h303l-141 -254h-227zM324 262h112v440h-112v-440z" />
<glyph unicode="&#xe2;" d="M45 227v516q0 52 8 92t27.5 74t56 52t88.5 18q98 0 211 -84l8 76h271v-971h-269l-10 76q-3 -3 -9.5 -9t-27.5 -20.5t-44 -25.5t-58.5 -20t-71.5 -9q-53 0 -89 18t-55.5 52t-27.5 73.5t-8 91.5zM145 1049l82 254h324l82 -254h-178l-66 100l-67 -100h-177zM324 262h112v440 h-112v-440z" />
<glyph unicode="&#xe3;" d="M45 227v516q0 52 8 92t27.5 74t56 52t88.5 18q98 0 211 -84l8 76h271v-971h-269l-10 76q-3 -3 -9.5 -9t-27.5 -20.5t-44 -25.5t-58.5 -20t-71.5 -9q-53 0 -89 18t-55.5 52t-27.5 73.5t-8 91.5zM135 1067v127q0 65 33.5 102t93.5 37h57q50 0 86.5 -26t49.5 -62l14 -39h23 v119h151v-129q0 -70 -32.5 -103.5t-90.5 -33.5h-57q-51 0 -83 17t-50 57l-23 53h-22v-119h-150zM324 262h112v440h-112v-440z" />
<glyph unicode="&#xe4;" d="M45 227v516q0 52 8 92t27.5 74t56 52t88.5 18q98 0 211 -84l8 76h271v-971h-269l-10 76q-3 -3 -9.5 -9t-27.5 -20.5t-44 -25.5t-58.5 -20t-71.5 -9q-53 0 -89 18t-55.5 52t-27.5 73.5t-8 91.5zM156 1049v254h198v-254h-198zM324 262h112v440h-112v-440zM424 1049v254h199 v-254h-199z" />
<glyph unicode="&#xe5;" d="M45 227v516q0 52 8 92t27.5 74t56 52t88.5 18q98 0 211 -84l8 76h271v-971h-269l-10 76q-3 -3 -9.5 -9t-27.5 -20.5t-44 -25.5t-58.5 -20t-71.5 -9q-53 0 -89 18t-55.5 52t-27.5 73.5t-8 91.5zM172 1180v84q0 71 39.5 113t122.5 42h117q75 0 117 -43t42 -125v-77 q0 -79 -43.5 -119.5t-115.5 -40.5h-115q-164 0 -164 166zM324 262h112v440h-112v-440zM352 1155h76v119h-76v-119z" />
<glyph unicode="&#xe6;" horiz-adv-x="1099" d="M41 270v13q0 138 66 208t190 70h119v152h-113v-68h-262v33q0 146 65.5 219.5t190.5 73.5h133q64 0 121 -23q54 23 119 23h133q256 0 256 -291v-285h-375v-157h113v79h262v-24q0 -146 -65.5 -219.5t-190.5 -73.5h-133q-64 0 -121 23q-54 -23 -119 -23h-133 q-256 0 -256 270zM303 238h113v157h-113v-157zM684 561h113v152h-113v-152z" />
<glyph unicode="&#xe7;" horiz-adv-x="724" d="M45 270v420q0 135 68.5 208t201.5 73h95q274 0 274 -279v-88h-268v98h-103v-440h103v141h268v-135q0 -124 -63.5 -193t-186.5 -75v-23q70 0 99.5 -33t29.5 -106v-16q0 -78 -33 -117t-106 -39h-90q-71 0 -104 33.5t-33 101.5v47h149v-55h68v70q-62 0 -88.5 27t-26.5 87v23 q-126 4 -190 73t-64 197z" />
<glyph unicode="&#xe8;" horiz-adv-x="733" d="M45 295v383q0 142 65.5 217.5t188.5 75.5h133q256 0 256 -291v-285h-375v-157h113v79h262v-24q0 -146 -65.5 -219.5t-190.5 -73.5h-133q-124 0 -189 73.5t-65 221.5zM137 1303h303l66 -254h-227zM313 561h113v152h-113v-152z" />
<glyph unicode="&#xe9;" horiz-adv-x="733" d="M45 295v383q0 142 65.5 217.5t188.5 75.5h133q256 0 256 -291v-285h-375v-157h113v79h262v-24q0 -146 -65.5 -219.5t-190.5 -73.5h-133q-124 0 -189 73.5t-65 221.5zM215 1049l66 254h303l-142 -254h-227zM313 561h113v152h-113v-152z" />
<glyph unicode="&#xea;" horiz-adv-x="733" d="M45 295v383q0 142 65.5 217.5t188.5 75.5h133q256 0 256 -291v-285h-375v-157h113v79h262v-24q0 -146 -65.5 -219.5t-190.5 -73.5h-133q-124 0 -189 73.5t-65 221.5zM117 1049l82 254h323l82 -254h-178l-66 100l-67 -100h-176zM313 561h113v152h-113v-152z" />
<glyph unicode="&#xeb;" horiz-adv-x="733" d="M45 295v383q0 142 65.5 217.5t188.5 75.5h133q256 0 256 -291v-285h-375v-157h113v79h262v-24q0 -146 -65.5 -219.5t-190.5 -73.5h-133q-124 0 -189 73.5t-65 221.5zM127 1049v254h199v-254h-199zM313 561h113v152h-113v-152zM395 1049v254h199v-254h-199z" />
<glyph unicode="&#xec;" horiz-adv-x="372" d="M-37 1303h303l66 -254h-228zM47 0v971h279v-971h-279z" />
<glyph unicode="&#xed;" horiz-adv-x="372" d="M41 1049l65 254h304l-142 -254h-227zM47 0v971h279v-971h-279z" />
<glyph unicode="&#xee;" horiz-adv-x="372" d="M-57 1049l82 254h323l82 -254h-178l-66 100l-67 -100h-176zM47 0v971h279v-971h-279z" />
<glyph unicode="&#xef;" horiz-adv-x="372" d="M-47 1049v254h199v-254h-199zM47 0v971h279v-971h-279zM221 1049v254h199v-254h-199z" />
<glyph unicode="&#xf0;" horiz-adv-x="757" d="M45 295v448q0 113 41 174.5t139 61.5q101 0 211 -84v74h-76v94h76v43h-239l-21 248h277q135 0 197.5 -65.5t62.5 -223.5v-2h67v-94h-67v-676q0 -146 -65.5 -219.5t-190.5 -73.5h-174q-238 0 -238 295zM324 262h112v440h-112v-440z" />
<glyph unicode="&#xf1;" d="M47 0v971h268l7 -76q123 84 229 84q86 0 126 -50t40 -167v-762h-279v702h-112v-702h-279zM125 1067v127q0 65 33.5 102t93.5 37h57q50 0 86 -26t49 -62l15 -39h22v119h152v-129q0 -70 -32.5 -103.5t-90.5 -33.5h-57q-51 0 -83.5 17t-50.5 57l-22 53h-23v-119h-149z" />
<glyph unicode="&#xf2;" horiz-adv-x="739" d="M45 295v383q0 142 65.5 217.5t188.5 75.5h139q256 0 256 -291v-387q0 -146 -65.5 -219.5t-190.5 -73.5h-139q-124 0 -189 73.5t-65 221.5zM141 1303h303l66 -254h-227zM313 262h113v440h-113v-440z" />
<glyph unicode="&#xf3;" horiz-adv-x="739" d="M45 295v383q0 142 65.5 217.5t188.5 75.5h139q256 0 256 -291v-387q0 -146 -65.5 -219.5t-190.5 -73.5h-139q-124 0 -189 73.5t-65 221.5zM219 1049l66 254h303l-142 -254h-227zM313 262h113v440h-113v-440z" />
<glyph unicode="&#xf4;" horiz-adv-x="739" d="M45 295v383q0 142 65.5 217.5t188.5 75.5h139q256 0 256 -291v-387q0 -146 -65.5 -219.5t-190.5 -73.5h-139q-124 0 -189 73.5t-65 221.5zM121 1049l82 254h323l82 -254h-178l-65 100l-68 -100h-176zM313 262h113v440h-113v-440z" />
<glyph unicode="&#xf5;" horiz-adv-x="739" d="M45 295v383q0 142 65.5 217.5t188.5 75.5h139q256 0 256 -291v-387q0 -146 -65.5 -219.5t-190.5 -73.5h-139q-124 0 -189 73.5t-65 221.5zM111 1067v127q0 65 33.5 102t93.5 37h57q50 0 86 -26t49 -62l14 -39h23v119h151v-129q0 -137 -122 -137h-58q-51 0 -83 17t-50 57 l-22 53h-23v-119h-149zM313 262h113v440h-113v-440z" />
<glyph unicode="&#xf6;" horiz-adv-x="739" d="M45 295v383q0 142 65.5 217.5t188.5 75.5h139q256 0 256 -291v-387q0 -146 -65.5 -219.5t-190.5 -73.5h-139q-124 0 -189 73.5t-65 221.5zM131 1049v254h199v-254h-199zM313 262h113v440h-113v-440zM399 1049v254h199v-254h-199z" />
<glyph unicode="&#xf7;" horiz-adv-x="614" d="M31 479v283h553v-283h-553zM195 215v203h225v-203h-225zM195 823v203h225v-203h-225z" />
<glyph unicode="&#xf8;" horiz-adv-x="739" d="M45 295v383q0 142 65.5 217.5t188.5 75.5h35l18 73h295l-31 -133q78 -72 78 -231v-387q0 -146 -65.5 -219.5t-190.5 -73.5h-18l-19 -74h-295l35 119q-96 72 -96 250zM313 373l62 329h-62v-329zM367 262h59v313z" />
<glyph unicode="&#xf9;" d="M45 186v785h279v-709h112v709h279v-971h-269l-10 72q-104 -80 -225 -80q-80 0 -123 48t-43 146zM156 1303h303l65 -254h-227z" />
<glyph unicode="&#xfa;" d="M45 186v785h279v-709h112v709h279v-971h-269l-10 72q-104 -80 -225 -80q-80 0 -123 48t-43 146zM233 1049l66 254h303l-141 -254h-228z" />
<glyph unicode="&#xfb;" d="M45 186v785h279v-709h112v709h279v-971h-269l-10 72q-104 -80 -225 -80q-80 0 -123 48t-43 146zM135 1049l82 254h324l82 -254h-179l-65 100l-68 -100h-176z" />
<glyph unicode="&#xfc;" d="M45 186v785h279v-709h112v709h279v-971h-269l-10 72q-104 -80 -225 -80q-80 0 -123 48t-43 146zM145 1049v254h199v-254h-199zM414 1049v254h198v-254h-198z" />
<glyph unicode="&#xfd;" horiz-adv-x="759" d="M45 195v776h277v-709h112v709h279v-996q0 -157 -62 -222.5t-198 -65.5h-277l21 247h237v146q-104 -80 -225 -80q-78 0 -121 48.5t-43 146.5zM233 1049l66 254h303l-141 -254h-228z" />
<glyph unicode="&#xfe;" horiz-adv-x="776" d="M47 -313v1667h272v-459q113 84 224 84q188 0 188 -236v-516q0 -235 -188 -235q-57 0 -112 21t-81 42l-26 21v-389h-277zM324 262h112v440h-112v-440z" />
<glyph unicode="&#xff;" horiz-adv-x="759" d="M45 195v776h277v-709h112v709h279v-996q0 -157 -62 -222.5t-198 -65.5h-277l21 247h237v146q-104 -80 -225 -80q-78 0 -121 48.5t-43 146.5zM145 1049v254h199v-254h-199zM414 1049v254h198v-254h-198z" />
<glyph unicode="&#x152;" horiz-adv-x="1110" d="M47 274v768q0 133 65 211t173 78h796v-276h-305v-254h219v-275h-219v-252h305v-274h-794q-111 0 -175.5 71t-64.5 203zM348 274h133v781h-133v-781z" />
<glyph unicode="&#x153;" horiz-adv-x="1099" d="M45 295v383q0 142 65.5 217.5t188.5 75.5h129q66 0 123 -23q54 23 119 23h133q256 0 256 -291v-285h-375v-157h113v79h262v-24q0 -146 -65.5 -219.5t-190.5 -73.5h-133q-64 0 -121 23q-57 -23 -121 -23h-129q-124 0 -189 73.5t-65 221.5zM313 262h103v440h-103v-440z M684 561h113v152h-113v-152z" />
<glyph unicode="&#x178;" horiz-adv-x="790" d="M-14 1331h309l94 -504h8l101 504h307l-268 -827v-504h-301v502zM160 1401v254h198v-254h-198zM428 1401v254h199v-254h-199z" />
<glyph unicode="&#x2c6;" horiz-adv-x="1024" d="M268 1077l82 254h324l82 -254h-178l-66 101l-68 -101h-176z" />
<glyph unicode="&#x2dc;" horiz-adv-x="1024" d="M258 1096v127q0 65 33.5 102t93.5 37h57q50 0 86.5 -26t49.5 -62l14 -39h22v119h152v-129q0 -70 -32.5 -104t-90.5 -34h-57q-51 0 -83 17t-50 57l-23 53h-22v-118h-150z" />
<glyph unicode="&#x2000;" horiz-adv-x="843" />
<glyph unicode="&#x2001;" horiz-adv-x="1686" />
<glyph unicode="&#x2002;" horiz-adv-x="843" />
<glyph unicode="&#x2003;" horiz-adv-x="1686" />
<glyph unicode="&#x2004;" horiz-adv-x="562" />
<glyph unicode="&#x2005;" horiz-adv-x="421" />
<glyph unicode="&#x2006;" horiz-adv-x="281" />
<glyph unicode="&#x2007;" horiz-adv-x="281" />
<glyph unicode="&#x2008;" horiz-adv-x="210" />
<glyph unicode="&#x2009;" horiz-adv-x="337" />
<glyph unicode="&#x200a;" horiz-adv-x="93" />
<glyph unicode="&#x2010;" horiz-adv-x="448" d="M31 479v283h387v-283h-387z" />
<glyph unicode="&#x2011;" horiz-adv-x="448" d="M31 479v283h387v-283h-387z" />
<glyph unicode="&#x2012;" horiz-adv-x="448" d="M31 479v283h387v-283h-387z" />
<glyph unicode="&#x2013;" horiz-adv-x="673" d="M20 479v283h633v-283h-633z" />
<glyph unicode="&#x2014;" horiz-adv-x="1021" d="M20 479v283h981v-283h-981z" />
<glyph unicode="&#x2018;" horiz-adv-x="393" d="M49 979v270l295 246v-516h-295z" />
<glyph unicode="&#x2019;" horiz-adv-x="393" d="M49 815v516h295v-270z" />
<glyph unicode="&#x201a;" horiz-adv-x="393" d="M49 139h295v-270l-295 -246v516z" />
<glyph unicode="&#x201c;" horiz-adv-x="753" d="M49 1040v271l295 245v-516h-295zM410 1040v271l295 245v-516h-295z" />
<glyph unicode="&#x201d;" horiz-adv-x="753" d="M49 815v516h295v-270zM410 815v516h295v-270z" />
<glyph unicode="&#x201e;" horiz-adv-x="753" d="M49 139h295v-270l-295 -246v516zM410 139h295v-270l-295 -246v516z" />
<glyph unicode="&#x2022;" horiz-adv-x="378" d="M33 571v138q0 78 32 111.5t93 33.5h65q123 0 123 -158v-123q0 -157 -123 -157h-73q-117 0 -117 155z" />
<glyph unicode="&#x2026;" horiz-adv-x="1179" d="M49 0v270h295v-270h-295zM442 0v270h295v-270h-295zM836 0v270h294v-270h-294z" />
<glyph unicode="&#x202f;" horiz-adv-x="337" />
<glyph unicode="&#x2039;" horiz-adv-x="458" d="M35 401v201l381 277v-254l-174 -121l174 -107v-252z" />
<glyph unicode="&#x203a;" horiz-adv-x="458" d="M43 145v254l174 121l-174 107v252l381 -256v-201z" />
<glyph unicode="&#x205f;" horiz-adv-x="421" />
<glyph unicode="&#x20ac;" horiz-adv-x="821" d="M10 369v262h80v63h-80v262h80v150q0 115 63.5 170t174.5 55h211q141 0 195 -72.5t54 -218.5v-102h-290v117h-113v-99h78v-262h-78v-63h78v-262h-78v-95h113v134h290v-134q0 -274 -241 -274h-217q-113 0 -176.5 63t-63.5 195v111h-80z" />
<glyph unicode="&#x2122;" horiz-adv-x="804" d="M8 1212v119h283v-119h-78v-350h-127v350h-78zM315 862v469h185l49 -313h2l47 313h182v-469h-110v209v82q-3 -43 -6 -61l-33 -230h-158l-37 230l-4.5 31.5t-5.5 41.5q2 -41 2 -94v-209h-113z" />
<glyph unicode="&#x25fc;" horiz-adv-x="972" d="M0 0v973h973v-973h-973z" />
</font>
</defs>
</svg>
