<?xml version="1.0" encoding="UTF-8" standalone="no"?>
<!-- Created with Inkscape (http://www.inkscape.org/) -->

<svg
   width="1220.5918"
   height="478.29883"
   viewBox="0 0 322.94824 126.5499"
   version="1.1"
   id="svg1"
   xml:space="preserve"
   sodipodi:docname="logo_simple_blanc_sans_triangle.svg"
   inkscape:version="1.3 (0e150ed6c4, 2023-07-21)"
   xmlns:inkscape="http://www.inkscape.org/namespaces/inkscape"
   xmlns:sodipodi="http://sodipodi.sourceforge.net/DTD/sodipodi-0.dtd"
   xmlns="http://www.w3.org/2000/svg"
   xmlns:svg="http://www.w3.org/2000/svg"><sodipodi:namedview
     id="namedview1"
     pagecolor="#ffffff"
     bordercolor="#000000"
     borderopacity="0.25"
     inkscape:showpageshadow="2"
     inkscape:pageopacity="0.0"
     inkscape:pagecheckerboard="0"
     inkscape:deskcolor="#d1d1d1"
     inkscape:zoom="0.63648868"
     inkscape:cx="600.16779"
     inkscape:cy="280.44489"
     inkscape:window-width="1920"
     inkscape:window-height="1057"
     inkscape:window-x="1912"
     inkscape:window-y="-8"
     inkscape:window-maximized="1"
     inkscape:current-layer="svg1" /><defs
     id="defs1"><filter
   style="color-interpolation-filters:sRGB"
   id="filter163"
   x="-0.094656795"
   y="-0.0594371"
   width="1.1893137"
   height="1.1188742"><feGaussianBlur
     stdDeviation="9.6925204"
     id="feGaussianBlur163" /></filter><filter
   style="color-interpolation-filters:sRGB"
   id="filter248"
   x="-0.11415805"
   y="-0.64478886"
   width="1.2283161"
   height="2.2895777"><feGaussianBlur
     stdDeviation="20.409657"
     id="feGaussianBlur248" /></filter><mask
   maskUnits="userSpaceOnUse"
   id="mask258"><g
     id="g259"
     transform="matrix(2.1229801,0,0,2.1229801,17.283826,236.11633)"
     style="opacity:1"><rect
       style="opacity:1;fill:#ffffff;fill-opacity:1;stroke:none;stroke-width:49.9999;stroke-linecap:round;stroke-linejoin:round;stroke-dasharray:none;stroke-opacity:1;paint-order:markers stroke fill"
       id="rect259"
       width="217.31543"
       height="49.567745"
       x="0.26088288"
       y="-10.435314" /><path
       id="path259"
       style="opacity:1;fill:#000000;stroke-width:50.5455;stroke-linecap:round;stroke-linejoin:round;paint-order:markers stroke fill"
       d="M 3.4837134,-4.7013216 H 65.396574 L 61.245953,10.560326 H 3.4837134 Z" /></g></mask><clipPath
   clipPathUnits="userSpaceOnUse"
   id="clipPath6"><rect
     style="display:inline;fill:#da3832;stroke-width:0.00542355;stroke-linecap:square;stroke-opacity:0.160287;paint-order:markers stroke fill"
     id="rect7"
     width="941.54541"
     height="1482.2312"
     x="-126.91677"
     y="-95.001427" /></clipPath><filter
   style="color-interpolation-filters:sRGB"
   id="filter7"
   x="0"
   y="0"
   width="1"
   height="1"><feColorMatrix
     values="0.21 0.72 0.072 0 0 0.21 0.72 0.072 0 0 0.21 0.72 0.072 0 0 0 0 0 1 0 "
     id="feColorMatrix7" /></filter><mask
   maskUnits="userSpaceOnUse"
   id="mask15"><g
     id="g17"
     transform="translate(24.35735,219.74415)"><rect
       style="opacity:1;fill:#ffffff;fill-opacity:1;stroke:none;stroke-width:32.5878;stroke-dasharray:none;stroke-opacity:1;paint-order:markers stroke fill"
       id="rect15"
       width="529.16669"
       height="529.16669"
       x="-1.0140991e-05"
       y="-4.2632564e-14" /><path
       id="path16"
       style="display:inline;opacity:1;fill:#000000;stroke-width:1.097;paint-order:markers stroke fill"
       d="M 24.35735,219.74415 V 484.32748 A 264.58337,264.58334 0 0 1 288.94068,219.74415 Z m 264.58333,0 A 264.58337,264.58334 0 0 1 553.52402,484.32748 V 219.74415 Z M 553.52402,484.32748 A 264.58337,264.58334 0 0 1 288.94068,748.91082 H 553.52402 Z M 288.94068,748.91082 A 264.58337,264.58334 0 0 1 24.35735,484.32748 v 264.58334 z"
       transform="translate(-24.35735,-219.74415)" /><path
       id="path17"
       style="display:none;opacity:1;fill:#000000;stroke-width:1.097;paint-order:markers stroke fill"
       d="M -504.80932,-84.815555 V 1021.3588 H 24.35735 553.52402 1082.6907 V -84.815555 H 553.52402 24.35735 Z m 793.75,304.559705 A 264.58337,264.58334 0 0 1 553.52402,484.32748 264.58337,264.58334 0 0 1 288.94068,748.91082 264.58337,264.58334 0 0 1 24.35735,484.32748 264.58337,264.58334 0 0 1 288.94068,219.74415 Z"
       transform="translate(-24.35735,-219.74415)" /></g></mask>&#10;           <linearGradient
   id="linearGradient01">&#10;              <stop
   offset="0%"
   stop-color="#D22E9A"
   id="stop1" />&#10;              <stop
   offset="100%"
   stop-color="#7b13d6"
   id="stop2" />&#10;           </linearGradient>&#10;           &#10;           </defs><path
     id="rect1"
     style="display:inline;fill:#7b13d6;fill-opacity:1;stroke-width:52.9167;paint-order:markers stroke fill"
     d="m 322.39582,0 -25.8439,1.309481 v 5.190897 c 0,13.326981 0.99424,57.118779 2.98225,64.086529 1.98799,6.89411 5.30025,11.69666 9.93892,14.40687 4.56505,-3.25007 7.84188,-8.42343 9.8299,-15.51895 2.06162,-7.17289 3.09283,-51.030078 3.09283,-64.283413 z m -51.06045,34.270777 c -1.85907,-0.0716 -3.76423,-0.058 -5.71541,0.0408 -9.27737,0.46997 -16.49321,2.78752 -21.64726,6.951 -5.08045,4.08612 -7.62124,9.55246 -7.62124,16.40003 0,3.01882 0.51638,5.79147 1.54719,8.31629 1.10445,2.44747 2.87068,5.0818 5.30046,7.90391 l 4.41885,5.07773 c 2.28249,2.6823 3.7916,4.70359 4.52789,6.06526 0.80994,1.28431 1.21439,2.51628 1.21439,3.69435 0,2.06163 -0.73605,3.68215 -2.20865,4.8612 -1.47262,1.10543 -3.57095,1.72699 -6.29522,1.865 -2.72432,0.138 -5.19065,-0.36296 -7.39955,-1.50275 -2.20888,-1.21345 -3.93972,-2.92992 -5.19141,-5.14904 v 25.291483 c 2.79792,1.03634 5.96391,1.75987 9.49812,2.16989 3.53423,0.48364 7.21554,0.62856 11.04429,0.4346 8.98281,-0.45505 16.0883,-2.8037 21.31601,-7.04453 5.30135,-4.24451 7.95248,-9.790223 7.95249,-16.637743 -1e-5,-2.87157 -0.55178,-5.53034 -1.65623,-7.97781 -1.03083,-2.4512 -2.76165,-5.08852 -5.19142,-7.91063 l -4.41781,-5.07772 c -2.20888,-2.46515 -3.71797,-4.37611 -4.52789,-5.73402 -0.80994,-1.43158 -1.21542,-2.77338 -1.21543,-4.02508 0,-1.98801 0.66265,-3.56769 1.98799,-4.73924 1.39896,-1.17532 3.31354,-1.82512 5.74332,-1.94821 2.79791,-0.14174 5.41107,0.38838 7.84086,1.59061 2.50343,1.19852 4.34458,2.87269 5.52266,5.02191 v -25.29148 c -2.65063,-1.0438 -5.78019,-1.7693 -9.38805,-2.17558 -1.76711,-0.24181 -3.57987,-0.39864 -5.43895,-0.47025 z m -158.68127,7.7897 c -8.3938,0.42521 -15.831362,2.60669 -22.310782,6.54276 -6.479408,3.86245 -11.485557,8.97569 -15.019752,15.33963 -3.534219,6.36394 -5.301485,13.41127 -5.301485,21.14238 0,7.73111 1.767266,14.5996 5.301485,20.605463 3.534195,6.00586 8.540344,10.64872 15.019752,13.92835 6.47942,3.20599 13.916982,4.59705 22.310782,4.17183 8.39376,-0.42521 15.82982,-2.56972 22.30924,-6.43216 6.47941,-3.93611 11.48657,-9.08628 15.02079,-15.45022 3.53421,-6.363933 5.30148,-13.411273 5.30148,-21.142383 -1e-5,-7.7311 -1.76727,-14.5996 -5.30148,-20.60546 -3.53422,-6.00586 -8.54138,-10.61177 -15.02079,-13.81776 -6.47942,-3.27961 -13.91548,-4.70764 -22.30924,-4.28243 z m -38.214201,4.146 L 47.04984,47.593997 34.342606,102.4723 26.28625,48.645607 5.16e-4,49.977307 14.579471,126.5499 50.032087,124.75414 Z m 153.960631,16.7163 -25.95501,1.31464 v 24.07967 c 0,2.7979 -0.6991,5.00524 -2.09806,6.62234 -1.32532,1.61336 -3.24043,2.48335 -5.74384,2.61017 -3.09243,0.15666 -5.37455,-1.08908 -6.84712,-3.73879 -1.39899,-2.65344 -2.09858,-6.92642 -2.09858,-12.81679 0,-5.37803 0.60242,-10.70733 1.74304,-15.99437 l -27.21849,1.37925 c -1.05235,5.31363 -1.58388,10.6416 -1.58388,15.9861 0,12.66432 3.01972,22.193973 9.05732,28.588433 6.11129,6.39072 14.90908,9.29554 26.39529,8.71368 7.06846,-0.35807 13.18073,-1.88298 18.3348,-4.57388 5.15407,-2.76449 9.09206,-6.53478 11.81633,-11.31145 2.79793,-4.780433 4.1982,-10.336613 4.1982,-16.668753 z m -115.74643,1.66914 c 3.09244,-0.15666 5.85291,0.477 8.2827,1.90015 2.42977,1.42312 4.30791,3.49932 5.63325,6.23011 1.32534,2.65716 1.98748,5.79003 1.98748,9.39787 0,3.60784 -0.66214,6.84442 -1.98748,9.70949 -1.32534,2.79144 -3.20348,5.02125 -5.63325,6.69055 -2.42979,1.669313 -5.19026,2.582703 -8.2827,2.739363 -3.09246,0.15666 -5.85451,-0.47699 -8.28424,-1.900143 -2.4298,-1.42312 -4.30636,-3.46287 -5.631702,-6.12004 -1.32535,-2.73079 -1.98799,-5.90011 -1.98799,-9.50795 0,-3.60784 0.66265,-6.80745 1.98799,-9.59889 1.325342,-2.86507 3.201912,-5.13184 5.631702,-6.80114 2.42974,-1.66931 5.19178,-2.58271 8.28424,-2.73937 z m 196.81899,23.93549 c -3.976,0.20141 -7.21488,1.54418 -9.71826,4.02715 -2.50342,2.48298 -3.75584,5.56499 -3.75585,9.246463 10e-6,3.75512 1.25243,6.74736 3.75585,8.97671 2.50338,2.22934 5.74226,3.24413 9.71826,3.04271 3.97599,-0.20142 7.2159,-1.5447 9.71931,-4.02766 2.50341,-2.48299 3.75584,-5.60193 3.75584,-9.35705 0,-3.681493 -1.25244,-6.636263 -3.75584,-8.865613 -2.50342,-2.22933 -5.74332,-3.24413 -9.71931,-3.04271 z"
     sodipodi:nodetypes="ccscccsccscsccccscsccccscsccccscsccccsccssscscssscscccccccccsscscsccscsccscsscscssccsccsssssssssss" /><path
     id="path2"
     style="display:inline;fill:#d2197c;fill-opacity:1;stroke-width:52.9167;paint-order:markers stroke fill"
     d="m 284.96038,1.826245 -9.96218,0.504362 -3.61632,8.74882 -3.75584,-8.3752 -9.96218,0.504879 6.88123,13.478247 -7.00061,14.421858 9.96218,-0.504362 3.8778,-9.039758 3.73363,8.653735 9.96218,-0.504362 -6.84351,-13.723709 z m -28.4918,1.443323 -9.3648,0.474389 v 17.533297 c 0,1.009514 -0.25229,1.80607 -0.75706,2.389518 -0.47818,0.582113 -1.16898,0.896301 -2.07223,0.942061 -1.11576,0.05652 -1.93934,-0.393237 -2.47065,-1.349272 -0.50477,-0.957365 -0.75706,-2.498723 -0.75706,-4.624007 0,-2.364361 0.30572,-4.704606 0.91674,-7.020243 0.63759,-2.343532 1.66056,-4.932255 3.06855,-7.766451 l -9.76323,0.494544 c -1.30173,2.217792 -2.29774,4.606185 -2.98845,7.164937 -0.66414,2.530857 -0.99631,5.071431 -0.99632,7.621757 0,4.569353 1.08909,8.007464 3.2675,10.314615 2.20499,2.305806 5.37969,3.353935 9.52397,3.143995 2.55034,-0.129195 4.75549,-0.679147 6.6151,-1.650029 1.85962,-0.997447 3.28088,-2.357948 4.26382,-4.081404 1.00951,-1.724788 1.51411,-3.729419 1.51412,-6.014103 z m -26.18083,1.326017 -19.84478,1.005623 v 21.917008 c 0,2.151849 0.39831,3.672046 1.19527,4.561479 0.79699,0.862868 2.20502,1.243294 4.22403,1.141015 l 14.42548,-0.730704 v -9.643339 c -0.66415,0.777502 -1.55435,1.353786 -2.67012,1.729093 -1.0892,0.373977 -2.72258,0.616218 -4.90099,0.726571 l -2.90939,0.147278 v -2.988448 l 7.29258,-0.369487 v -6.774263 l -7.29258,0.369486 v -2.988965 l 2.90939,-0.147277 c 2.17841,-0.110354 3.81178,-0.03366 4.90099,0.22996 1.11576,0.262262 2.00597,0.748628 2.67012,1.458825 z m -22.23585,1.126546 -9.44439,0.478524 v 27.894422 l 9.44439,-0.47853 z m -11.83494,0.599447 -9.16533,0.464571 -5.65857,9.693981 -5.65857,-9.12089 -9.16533,0.464571 v 27.893906 l 8.96586,-0.45424 V 21.812105 l 5.85804,9.289355 5.85752,-9.882084 v 13.450861 l 8.96638,-0.45424 z m -46.82298,1.575097 c -3.34731,0.169567 -5.95076,1.005662 -7.81038,2.507857 -1.83305,1.474301 -2.7497,3.446834 -2.7497,5.917469 0,1.089205 0.18619,2.08885 0.55811,2.999816 0.39849,0.883056 1.03586,1.833791 1.91254,2.852023 l 1.59422,1.831929 c 0.82355,0.967795 1.36835,1.697722 1.63401,2.189014 0.29222,0.463381 0.43821,0.907161 0.43821,1.332218 0,0.743857 -0.26553,1.328491 -0.79685,1.753898 -0.53133,0.398829 -1.28876,0.623551 -2.27169,0.673344 -0.98295,0.0498 -1.87264,-0.131353 -2.66961,-0.542602 -0.79698,-0.437812 -1.42165,-1.05658 -1.87327,-1.857251 v 9.125027 c 1.00952,0.37391 2.15203,0.63496 3.42718,0.78289 1.27518,0.1745 2.60335,0.22656 3.98477,0.15658 3.24106,-0.16418 5.80482,-1.01132 7.69101,-2.54144 1.91274,-1.53145 2.86907,-3.532104 2.86907,-6.002737 0,-1.036078 -0.1994,-1.995838 -0.59789,-2.878894 -0.37192,-0.884402 -0.99608,-1.835857 -1.87276,-2.854089 l -1.5937,-1.83193 c -0.79698,-0.889433 -1.34179,-1.579178 -1.63401,-2.069124 -0.29222,-0.516524 -0.43821,-1.000486 -0.43821,-1.452108 0,-0.717277 0.23908,-1.287256 0.71726,-1.709973 0.50475,-0.424066 1.19555,-0.658392 2.07223,-0.702799 1.00951,-0.05114 1.95261,0.140335 2.82928,0.574125 0.90325,0.432429 1.56708,1.036338 1.99213,1.811776 V 8.836153 C 155.84955,8.459544 154.72079,8.19829 153.41906,8.051705 152.1439,7.877209 150.80199,7.825349 149.39398,7.896675 Z m -13.82758,1.497583 -8.96586,0.454236 v 9.414929 l -8.08943,-9.005135 -7.85017,0.397392 v 27.894417 l 8.96587,-0.45372 V 23.989233 c 1.61622,1.511562 3.00349,2.929465 3.98528,4.181656 1.22203,1.558616 2.08526,3.082604 2.59002,4.571298 0.53132,1.48735 0.79686,3.14752 0.79686,4.98057 l 8.56743,-0.43408 z M 93.485768,10.72906 c -3.02853,0.153419 -5.71133,0.9399 -8.04912,2.360063 -2.337816,1.393599 -4.144658,3.238407 -5.419829,5.534546 -1.275155,2.296138 -1.912544,4.839056 -1.912544,7.628475 0,2.789433 0.63739,5.267745 1.912544,7.434683 1.275171,2.16695 3.082012,3.84223 5.419829,5.02554 2.33779,1.15674 5.02059,1.65824 8.04912,1.50482 3.02852,-0.15342 5.71184,-0.92719 8.049632,-2.32079 2.33781,-1.42016 4.14466,-3.2782 5.41983,-5.57434 1.27515,-2.296138 1.91254,-4.839041 1.91254,-7.628475 0,-2.789417 -0.63739,-5.267226 -1.91254,-7.434171 -1.27517,-2.166943 -3.08202,-3.829 -5.41983,-4.985742 -2.337792,-1.183308 -5.021102,-1.698028 -8.049632,-1.544609 z m -23.39134,1.184941 c -3.347312,0.169568 -5.950764,1.005145 -7.810376,2.50734 -1.833064,1.474302 -2.749186,3.446835 -2.749186,5.917469 0,1.089206 0.18566,2.089369 0.557588,3.000333 0.398493,0.883056 1.036384,1.833791 1.913062,2.852022 l 1.593701,1.83193 c 0.823535,0.967796 1.368352,1.697205 1.634009,2.188497 0.292236,0.463381 0.438216,0.907679 0.438216,1.332735 0,0.743857 -0.265522,1.32849 -0.796851,1.753898 -0.531313,0.398822 -1.288761,0.623032 -2.271696,0.672832 -0.982949,0.0498 -1.872634,-0.13084 -2.669604,-0.542091 -0.796986,-0.437812 -1.42165,-1.057095 -1.873271,-1.857767 v 9.125538 c 1.009499,0.37392 2.152011,0.63497 3.427181,0.7829 1.27517,0.17449 2.603343,0.22656 3.98477,0.15658 3.241055,-0.16419 5.804826,-1.01133 7.691003,-2.54145 1.912756,-1.53145 2.869076,-3.53262 2.869076,-6.003248 0,-1.036078 -0.199404,-1.995322 -0.597897,-2.878377 -0.371913,-0.884401 -0.996075,-1.835858 -1.872754,-2.854089 l -1.593701,-1.83193 c -0.796986,-0.889432 -1.341787,-1.579178 -1.634008,-2.069124 -0.292221,-0.516526 -0.438217,-1.000486 -0.438217,-1.452108 0,-0.717276 0.239084,-1.287255 0.717269,-1.709973 0.50475,-0.424059 1.195547,-0.658386 2.072225,-0.702799 1.009499,-0.05114 1.952607,0.140335 2.829285,0.574125 0.903257,0.432428 1.567085,1.036336 1.992126,1.811775 v -9.12554 c -0.95637,-0.376609 -2.085138,-0.63838 -3.386873,-0.784965 -1.275171,-0.174496 -2.617086,-0.225839 -4.025077,-0.154513 z m -13.82758,1.497066 -9.443868,0.478524 v 27.894416 l 9.443868,-0.47852 z m -11.834936,0.599964 -11.5564,0.584977 c -1.753356,0.08882 -3.16139,0.399694 -4.224032,0.931726 -1.062642,0.505452 -1.965553,1.334768 -2.709395,2.48822 -0.717293,1.125543 -1.381637,2.740022 -1.992643,4.843115 l -6.056995,20.390488 9.523967,-0.48214 1.928047,-7.07141 5.922119,-0.30024 v 6.97374 l 9.165332,-0.46457 z M 18.649507,15.316894 5.419824,15.987137 C 3.40081,16.089416 1.992778,16.62563 1.195792,17.595825 0.398822,18.53944 0,20.087119 0,22.238952 v 21.917005 l 9.364803,-0.47439 v -8.16901 l 9.284704,-0.47025 V 27.470674 L 9.364803,27.941446 V 23.35878 l 1.71359,-0.08682 c 2.178413,-0.110354 3.812303,-0.03366 4.90151,0.22996 1.11577,0.262262 2.005455,0.748111 2.669604,1.458309 z m 74.836261,3.541386 c 1.11576,-0.05652 2.11228,0.171748 2.98896,0.685229 0.87668,0.513468 1.55425,1.262635 2.03244,2.247925 0.47818,0.958711 0.71726,2.089273 0.71726,3.391007 0,1.301735 -0.23908,2.469408 -0.71726,3.503146 -0.47819,1.007158 -1.15576,1.812019 -2.03244,2.414323 -0.87668,0.60229 -1.87319,0.931533 -2.98896,0.988053 -1.11577,0.05652 -2.11177,-0.171763 -2.98845,-0.68523 -0.87668,-0.513482 -1.55425,-1.24994 -2.03244,-2.20865 -0.47818,-0.985291 -0.71726,-2.128547 -0.71726,-3.430282 0,-1.301734 0.23908,-2.456196 0.71726,-3.463354 0.47819,-1.033737 1.15576,-1.851825 2.03244,-2.454114 0.87668,-0.602306 1.87267,-0.931533 2.98845,-0.988053 z M 35.26658,21.289139 v 7.332369 l -4.049365,0.205155 1.299662,-4.767667 c 0.212513,-0.834316 0.398705,-1.42838 0.558106,-1.781804 0.185964,-0.35483 0.398594,-0.591696 0.637687,-0.710034 0.265656,-0.146352 0.637509,-0.231571 1.115694,-0.255798 z M 224.1889,37.619407 c -2.01901,0.10228 -3.81592,0.62837 -5.39037,1.57872 -1.55593,0.9494 -2.77837,2.22464 -3.66748,3.8256 -0.87058,1.60005 -1.30587,3.40023 -1.30586,5.40071 -1e-5,2.00048 0.43529,3.75709 1.30586,5.26893 0.88911,1.51088 2.11153,2.66176 3.66748,3.45353 1.57444,0.79082 3.37136,1.13529 5.39037,1.03301 0.87057,-0.0441 1.68536,-0.16895 2.44481,-0.37413 0.75945,-0.20518 1.36154,-0.45773 1.80609,-0.7581 v -6.36292 c -0.35194,0.555 -0.82423,0.98663 -1.41697,1.2945 -0.57421,0.30696 -1.25033,0.47995 -2.0283,0.51935 -0.88911,0.045 -1.65802,-0.1011 -2.30632,-0.43874 -0.6483,-0.33761 -1.14822,-0.84926 -1.50016,-1.5353 -0.35194,-0.68606 -0.52813,-1.50169 -0.52814,-2.44637 0,-0.94468 0.1762,-1.77789 0.52814,-2.49958 0.35194,-0.72171 0.85186,-1.28394 1.50016,-1.68724 0.6483,-0.40327 1.41721,-0.62724 2.30632,-0.67231 0.77797,-0.0394 1.45408,0.0649 2.0283,0.31368 0.59273,0.24781 1.06503,0.63149 1.41697,1.15083 v -6.36292 c -0.44455,-0.25533 -1.04665,-0.44693 -1.80609,-0.57516 -0.75945,-0.12827 -1.57424,-0.17022 -2.44481,-0.12609 z m -11.03034,1.11466 -13.83688,0.70073 v 15.28124 c 0,1.50037 0.27786,2.56104 0.83354,3.1812 0.55569,0.60164 1.5373,0.86662 2.94504,0.7953 l 10.0583,-0.50953 v -6.72362 c -0.46306,0.54212 -1.08392,0.94393 -1.8619,1.20561 -0.75943,0.26076 -1.89847,0.42949 -3.41736,0.50643 l -2.0283,0.10284 v -2.08411 l 5.08444,-0.25735 v -4.72323 l -5.08444,0.25735 v -2.08359 l 2.0283,-0.10284 c 1.51889,-0.0769 2.65793,-0.0236 3.41736,0.1602 0.77799,0.18287 1.39884,0.5218 1.8619,1.01699 z m -14.67042,0.74311 -6.89054,0.34881 -3.1967,13.80588 -2.02675,-13.54129 -6.61303,0.33486 3.66799,19.26342 8.91884,-0.45165 z m -19.83806,1.00459 -8.05739,0.40824 c -1.22252,0.0619 -2.20465,0.27863 -2.94556,0.64958 -0.74092,0.35242 -1.37064,0.93054 -1.88929,1.73477 -0.50013,0.78478 -0.96304,1.91068 -1.38906,3.37706 l -4.22352,14.21722 6.64094,-0.33642 1.3441,-4.93044 4.12947,-0.20929 v 4.86223 l 6.39031,-0.32349 z m -6.39031,5.07514 v 5.11235 l -2.8236,0.14314 0.9064,-3.32486 c 0.1482,-0.58172 0.27748,-0.99588 0.38861,-1.2423 0.12965,-0.24743 0.27822,-0.41206 0.44493,-0.49454 0.18523,-0.102 0.44431,-0.16142 0.77773,-0.17829 z"
     sodipodi:nodetypes="cccccccccccccccscscsccccscsccccccsccccccccccccccccccccccccccccccccccscsccccscsccccscsccccscsccccsccccccccsccccscssscscssscsscsccccscsccccscsccccscsccccsccccccccccccccccccccscccccccscccsscscssscscssccccccscccsccsscccssssssscccscccscccccccccccccccccccccccccsccccccccccscccccscc" /></svg>
